# xmcd CD database file
#
# Track frame offsets:
#	150
#	16317
#	29746
#	46144
#	61704
#	75791
#	86436
#	102870
#	123329
#	143025
#	164683
#	175401
#	193160
#	204964
#	227530
#
# Disc length: 3187 seconds
#
# Revision: 0
# Processed by: cddbd v1.5.1PL0 Copyright (c) Steve Scherf et al.
# Submitted via: CDex 1.51
#
DISCID=b80c710f
DTITLE=John Nemeth - Come and Get It
DYEAR=2004
DGENRE=Blues
TTITLE0=She Belongs To Me
TTITLE1=Aint Too Old
TTITLE2=Come and Get It
TTITLE3=Bring It On Back Home
TTITLE4=What Have I Done Wrong
TTITLE5=Romance Without Finance
TTITLE6=I Don't Think I Could
TTITLE7=Don't You Talk
TTITLE8=Late Night Boogie
TTITLE9=Let Me Hold You
TTITLE10=I'm Gonna Drop You
TTITLE11=Love In Vain
TTITLE12=Yes, My Darlin'
TTITLE13=Careless Love
TTITLE14=She's Gone Away But She'll Be Back
EXTD=YEAR: 2004
EXTT0=
EXTT1=
EXTT2=
EXTT3=
EXTT4=
EXTT5=
EXTT6=
EXTT7=
EXTT8=
EXTT9=
EXTT10=
EXTT11=
EXTT12=
EXTT13=
EXTT14=
PLAYORDER=
